<svg xmlns="http://www.w3.org/2000/svg" viewBox="-46 -56 572 572" width="512" height="512">
  <rect x="-46" y="-56" width="572" height="572" rx="120" fill="#0a0a0a"/>
  <g fill="#ffffff" stroke="#ffffff" stroke-linejoin="round" stroke-width="4.2">
    <path d="m330 87v62c0 4 4 7 8 7h120c4 0 6-3 6-7v-113c0-4-2-7-6-7h-63c-35 0-62 24-65 58z"/>
    <path d="m336 171.53c-3 0-7 4.03-7 7.06v112.82c0 4.03 3 7.06 7 7.06h122c4 0 6-3.03 6-7.06v-112.82c0-3.03-2-7.06-6-7.06z"/>
    <path d="m173.67 311c-3.28 0-7.67 4.03-7.67 7.05v112.83c0 4.03 3.29 7.05 7.67 7.05h133.75c4.39 0 6.58-3.02 6.58-7.05v-112.83c0-3.02-2.19-7.05-6.58-7.05z"/>
    <path d="m16 380v-62c0-4 4-7 8-7h120c4 0 6 3 6 7v113c0 4-2 7-6 7h-63c-35 0-62-24-65-58z"/>
    <path d="m464 380v-62c0-4-4-7-8-7h-120c-4 0-6 3-6 7v113c0 4 2 7 6 7h63c35 0 62-24 65-58z"/>
    <path d="m146 153h-122c-6 0-8-3-8-6v-111c0-3 2-6 8-6h81c23 0 46 19 46 45v71c1 3-1 7-5 7z"/>
    <path d="m24.05 295.47c-3.02 0-7.05-4.03-7.05-7.06v-112.82c0-4.03 3.02-7.06 7.05-7.06h122.91c4.03 0 6.04 3.03 6.04 7.06v112.82c0 3.03-2.01 7.06-6.04 7.06z"/>
    <path d="m313.19 85c-12.64 12-38.83 39-73.15 41-29.8-1-55.09-24-71.34-42-3.61-3-2.71 4-2.71 4v73c1.81 17 9.93 29 14.45 34l52.38 58c4.51 5 12.64 4 15.35 0l49.67-55c7.23-7 15.35-23 17.16-33v-76c0-4 0-5-1.81-4z"/>
  </g>
</svg>
