<svg version="1.2" xmlns="http://www.w3.org/2000/svg" viewBox="0 0 1900 470" width="1900" height="470">
	<style>
		.s0 { fill: #0d0d0d;stroke: #0d0d0d;stroke-linejoin: round;stroke-width: 4.2 } 
	</style>
	<path class="s0" d="m622.92 83.09l56.08-0.09 97 177 93-177h56v289h-45v-209l-103 188h-4l-103-186v206h-47v-288z"/>
	<path class="s0" d="m952 268c0-58 44-108 104-108 62 0 109 46 109 107 0 60-43 105-108 105-56 1-105-43-105-104zm169 0c0-36-23-66-64-66-38 0-64 29-64 65 0 36 24 66 63 66 39 1 65-27 65-65z"/>
	<path class="s0" d="m1184 329l34-21c11 18 27 28 50 28 24 0 42-8 42-25 0-17-18-22-45-28-43-10-75-23-75-61 0-39 35-62 76-62 35 0 61 14 76 39l-31 21c-10-14-22-23-44-23-20 0-34 8-34 22 0 17 18 21 43 27 43 10 76 23 76 64 0 39-35 62-83 62-37 1-69-14-85-43z"/>
	<path class="s0" d="m1375 267c0-62 44-107 101-107 27 0 51 12 68 30v-25h46v206h-43v-28c-16 18-38 30-71 30-50 0-101-40-101-106zm171 0c0-36-26-65-63-65-37 0-63 28-63 65 0 38 26 66 63 66 36 1 63-27 63-66z"/>
	<path class="s0" d="m1637 83h28c4 0 8 4 8 8v31c0 4-4 8-8 8h-28c-4 0-10-4-10-8v-31c1-4 6-8 10-8zm-8 82h43v203h-43z"/>
	<path class="s0" d="m1759 278l-10-1v91h-42v-285h42v168l8-5 67-81h45l-79 97 83 106h-46z"/>
	<path class="s0" d="m330 87v62c0 4 4 7 8 7h120c4 0 6-3 6-7v-113c0-4-2-7-6-7h-63c-35 0-62 24-65 58z"/>
	<path class="s0" d="m336 171.53c-3 0-7 4.03-7 7.06v112.82c0 4.03 3 7.06 7 7.06h122c4 0 6-3.03 6-7.06v-112.82c0-3.03-2-7.06-6-7.06z"/>
	<path id="Layer copy 4" class="s0" d="m173.67 311c-3.28 0-7.67 4.03-7.67 7.05v112.83c0 4.03 3.29 7.05 7.67 7.05h133.75c4.39 0 6.58-3.02 6.58-7.05v-112.83c0-3.02-2.19-7.05-6.58-7.05z"/>
	<path id="Layer copy" class="s0" d="m16 380v-62c0-4 4-7 8-7h120c4 0 6 3 6 7v113c0 4-2 7-6 7h-63c-35 0-62-24-65-58z"/>
	<path id="Layer copy 5" class="s0" d="m464 380v-62c0-4-4-7-8-7h-120c-4 0-6 3-6 7v113c0 4 2 7 6 7h63c35 0 62-24 65-58z"/>
	<path id="Layer copy 2" class="s0" d="m146 153h-122c-6 0-8-3-8-6v-111c0-3 2-6 8-6h81c23 0 46 19 46 45v71c1 3-1 7-5 7z"/>
	<path id="Layer copy 3" class="s0" d="m24.05 295.47c-3.02 0-7.05-4.03-7.05-7.06v-112.82c0-4.03 3.02-7.06 7.05-7.06h122.91c4.03 0 6.04 3.03 6.04 7.06v112.82c0 3.03-2.01 7.06-6.04 7.06z"/>
	<path class="s0" d="m313.19 85c-12.64 12-38.83 39-73.15 41-29.8-1-55.09-24-71.34-42-3.61-3-2.71 4-2.71 4v73c1.81 17 9.93 29 14.45 34l52.38 58c4.51 5 12.64 4 15.35 0l49.67-55c7.23-7 15.35-23 17.16-33v-76c0-4 0-5-1.81-4z"/>
</svg>